<svg xmlns="http://www.w3.org/2000/svg" xmlns:xlink="http://www.w3.org/1999/xlink" style="margin:auto;background:rgba(0,0,0,0);display:block;" width="200px" height="200px" viewBox="0 0 100 100" preserveAspectRatio="xMidYMid">
<g transform="rotate(0 50 50)">
  <rect x="47" y="24" rx="3" ry="6" width="6" height="12" fill="#118bdd">
    <animate attributeName="opacity" values="1;0" keyTimes="0;1" dur="1.0416666666666665s" begin="-0.954861111111111s" repeatCount="indefinite"></animate>
  </rect>
</g><g transform="rotate(30 50 50)">
  <rect x="47" y="24" rx="3" ry="6" width="6" height="12" fill="#118bdd">
    <animate attributeName="opacity" values="1;0" keyTimes="0;1" dur="1.0416666666666665s" begin="-0.8680555555555555s" repeatCount="indefinite"></animate>
  </rect>
</g><g transform="rotate(60 50 50)">
  <rect x="47" y="24" rx="3" ry="6" width="6" height="12" fill="#118bdd">
    <animate attributeName="opacity" values="1;0" keyTimes="0;1" dur="1.0416666666666665s" begin="-0.7812499999999999s" repeatCount="indefinite"></animate>
  </rect>
</g><g transform="rotate(90 50 50)">
  <rect x="47" y="24" rx="3" ry="6" width="6" height="12" fill="#118bdd">
    <animate attributeName="opacity" values="1;0" keyTimes="0;1" dur="1.0416666666666665s" begin="-0.6944444444444443s" repeatCount="indefinite"></animate>
  </rect>
</g><g transform="rotate(120 50 50)">
  <rect x="47" y="24" rx="3" ry="6" width="6" height="12" fill="#118bdd">
    <animate attributeName="opacity" values="1;0" keyTimes="0;1" dur="1.0416666666666665s" begin="-0.6076388888888888s" repeatCount="indefinite"></animate>
  </rect>
</g><g transform="rotate(150 50 50)">
  <rect x="47" y="24" rx="3" ry="6" width="6" height="12" fill="#118bdd">
    <animate attributeName="opacity" values="1;0" keyTimes="0;1" dur="1.0416666666666665s" begin="-0.5208333333333333s" repeatCount="indefinite"></animate>
  </rect>
</g><g transform="rotate(180 50 50)">
  <rect x="47" y="24" rx="3" ry="6" width="6" height="12" fill="#118bdd">
    <animate attributeName="opacity" values="1;0" keyTimes="0;1" dur="1.0416666666666665s" begin="-0.43402777777777773s" repeatCount="indefinite"></animate>
  </rect>
</g><g transform="rotate(210 50 50)">
  <rect x="47" y="24" rx="3" ry="6" width="6" height="12" fill="#118bdd">
    <animate attributeName="opacity" values="1;0" keyTimes="0;1" dur="1.0416666666666665s" begin="-0.34722222222222215s" repeatCount="indefinite"></animate>
  </rect>
</g><g transform="rotate(240 50 50)">
  <rect x="47" y="24" rx="3" ry="6" width="6" height="12" fill="#118bdd">
    <animate attributeName="opacity" values="1;0" keyTimes="0;1" dur="1.0416666666666665s" begin="-0.26041666666666663s" repeatCount="indefinite"></animate>
  </rect>
</g><g transform="rotate(270 50 50)">
  <rect x="47" y="24" rx="3" ry="6" width="6" height="12" fill="#118bdd">
    <animate attributeName="opacity" values="1;0" keyTimes="0;1" dur="1.0416666666666665s" begin="-0.17361111111111108s" repeatCount="indefinite"></animate>
  </rect>
</g><g transform="rotate(300 50 50)">
  <rect x="47" y="24" rx="3" ry="6" width="6" height="12" fill="#118bdd">
    <animate attributeName="opacity" values="1;0" keyTimes="0;1" dur="1.0416666666666665s" begin="-0.08680555555555554s" repeatCount="indefinite"></animate>
  </rect>
</g><g transform="rotate(330 50 50)">
  <rect x="47" y="24" rx="3" ry="6" width="6" height="12" fill="#118bdd">
    <animate attributeName="opacity" values="1;0" keyTimes="0;1" dur="1.0416666666666665s" begin="0s" repeatCount="indefinite"></animate>
  </rect>
</g>
</svg>